<mxfile host="app.diagrams.net" agent="Mozilla/5.0 (Windows NT 10.0; Win64; x64) AppleWebKit/537.36 (KHTML, like Gecko) Chrome/131.0.0.0 Safari/537.36" version="24.9.1">
  <diagram name="Сторінка-1" id="vR79tItynAawrQFvUPec">
    <mxGraphModel dx="1384" dy="612" grid="1" gridSize="10" guides="1" tooltips="1" connect="1" arrows="1" fold="1" page="1" pageScale="1" pageWidth="827" pageHeight="1169" math="0" shadow="0">
      <root>
        <mxCell id="0" />
        <mxCell id="1" parent="0" />
        <mxCell id="qf58Oz260cfnyzpYxCxi-4" value="" style="edgeStyle=orthogonalEdgeStyle;rounded=0;orthogonalLoop=1;jettySize=auto;html=1;" edge="1" parent="1" source="qf58Oz260cfnyzpYxCxi-1" target="qf58Oz260cfnyzpYxCxi-3">
          <mxGeometry relative="1" as="geometry" />
        </mxCell>
        <mxCell id="qf58Oz260cfnyzpYxCxi-1" value="Start" style="ellipse;whiteSpace=wrap;html=1;" vertex="1" parent="1">
          <mxGeometry x="70" y="20" width="80" height="40" as="geometry" />
        </mxCell>
        <mxCell id="qf58Oz260cfnyzpYxCxi-2" value="End" style="ellipse;whiteSpace=wrap;html=1;" vertex="1" parent="1">
          <mxGeometry x="350" y="390" width="80" height="40" as="geometry" />
        </mxCell>
        <mxCell id="qf58Oz260cfnyzpYxCxi-6" value="" style="edgeStyle=orthogonalEdgeStyle;rounded=0;orthogonalLoop=1;jettySize=auto;html=1;" edge="1" parent="1" source="qf58Oz260cfnyzpYxCxi-3" target="qf58Oz260cfnyzpYxCxi-5">
          <mxGeometry relative="1" as="geometry" />
        </mxCell>
        <mxCell id="qf58Oz260cfnyzpYxCxi-3" value="Initialize vector cave" style="rounded=1;whiteSpace=wrap;html=1;" vertex="1" parent="1">
          <mxGeometry x="55" y="90" width="110" height="40" as="geometry" />
        </mxCell>
        <mxCell id="qf58Oz260cfnyzpYxCxi-9" value="" style="edgeStyle=orthogonalEdgeStyle;rounded=0;orthogonalLoop=1;jettySize=auto;html=1;" edge="1" parent="1" source="qf58Oz260cfnyzpYxCxi-5" target="qf58Oz260cfnyzpYxCxi-7">
          <mxGeometry relative="1" as="geometry" />
        </mxCell>
        <mxCell id="qf58Oz260cfnyzpYxCxi-5" value="Input : N, M" style="shape=parallelogram;perimeter=parallelogramPerimeter;whiteSpace=wrap;html=1;fixedSize=1;" vertex="1" parent="1">
          <mxGeometry x="55" y="160" width="110" height="40" as="geometry" />
        </mxCell>
        <mxCell id="qf58Oz260cfnyzpYxCxi-10" value="" style="edgeStyle=orthogonalEdgeStyle;rounded=0;orthogonalLoop=1;jettySize=auto;html=1;" edge="1" parent="1" source="qf58Oz260cfnyzpYxCxi-7" target="qf58Oz260cfnyzpYxCxi-8">
          <mxGeometry relative="1" as="geometry" />
        </mxCell>
        <mxCell id="qf58Oz260cfnyzpYxCxi-13" value="" style="edgeStyle=orthogonalEdgeStyle;rounded=0;orthogonalLoop=1;jettySize=auto;html=1;" edge="1" parent="1" source="qf58Oz260cfnyzpYxCxi-7" target="qf58Oz260cfnyzpYxCxi-12">
          <mxGeometry relative="1" as="geometry" />
        </mxCell>
        <mxCell id="qf58Oz260cfnyzpYxCxi-7" value="i &amp;lt; N, ++i" style="rhombus;whiteSpace=wrap;html=1;" vertex="1" parent="1">
          <mxGeometry x="65" y="230" width="90" height="60" as="geometry" />
        </mxCell>
        <mxCell id="qf58Oz260cfnyzpYxCxi-11" style="edgeStyle=orthogonalEdgeStyle;rounded=0;orthogonalLoop=1;jettySize=auto;html=1;exitX=0;exitY=0.5;exitDx=0;exitDy=0;entryX=0;entryY=0.5;entryDx=0;entryDy=0;" edge="1" parent="1" source="qf58Oz260cfnyzpYxCxi-8" target="qf58Oz260cfnyzpYxCxi-7">
          <mxGeometry relative="1" as="geometry">
            <Array as="points">
              <mxPoint x="30" y="340" />
              <mxPoint x="30" y="260" />
            </Array>
          </mxGeometry>
        </mxCell>
        <mxCell id="qf58Oz260cfnyzpYxCxi-8" value="Input : cave[ i ]" style="shape=parallelogram;perimeter=parallelogramPerimeter;whiteSpace=wrap;html=1;fixedSize=1;" vertex="1" parent="1">
          <mxGeometry x="50" y="320" width="120" height="40" as="geometry" />
        </mxCell>
        <mxCell id="qf58Oz260cfnyzpYxCxi-15" value="" style="edgeStyle=orthogonalEdgeStyle;rounded=0;orthogonalLoop=1;jettySize=auto;html=1;" edge="1" parent="1" source="qf58Oz260cfnyzpYxCxi-12" target="qf58Oz260cfnyzpYxCxi-14">
          <mxGeometry relative="1" as="geometry" />
        </mxCell>
        <mxCell id="qf58Oz260cfnyzpYxCxi-12" value="simulateEarthquake (cave, N, M)" style="shape=process;whiteSpace=wrap;html=1;backgroundOutline=1;" vertex="1" parent="1">
          <mxGeometry x="214" y="235" width="150" height="50" as="geometry" />
        </mxCell>
        <mxCell id="qf58Oz260cfnyzpYxCxi-17" value="" style="edgeStyle=orthogonalEdgeStyle;rounded=0;orthogonalLoop=1;jettySize=auto;html=1;" edge="1" parent="1" source="qf58Oz260cfnyzpYxCxi-14" target="qf58Oz260cfnyzpYxCxi-16">
          <mxGeometry relative="1" as="geometry" />
        </mxCell>
        <mxCell id="qf58Oz260cfnyzpYxCxi-21" style="edgeStyle=orthogonalEdgeStyle;rounded=0;orthogonalLoop=1;jettySize=auto;html=1;exitX=1;exitY=0.5;exitDx=0;exitDy=0;entryX=0.5;entryY=0;entryDx=0;entryDy=0;" edge="1" parent="1" source="qf58Oz260cfnyzpYxCxi-14" target="qf58Oz260cfnyzpYxCxi-2">
          <mxGeometry relative="1" as="geometry" />
        </mxCell>
        <mxCell id="qf58Oz260cfnyzpYxCxi-14" value="for ( row : cave )" style="rhombus;whiteSpace=wrap;html=1;" vertex="1" parent="1">
          <mxGeometry x="234" y="320" width="110" height="70" as="geometry" />
        </mxCell>
        <mxCell id="qf58Oz260cfnyzpYxCxi-20" style="edgeStyle=orthogonalEdgeStyle;rounded=0;orthogonalLoop=1;jettySize=auto;html=1;exitX=0;exitY=0.5;exitDx=0;exitDy=0;entryX=0;entryY=0.5;entryDx=0;entryDy=0;" edge="1" parent="1" source="qf58Oz260cfnyzpYxCxi-16" target="qf58Oz260cfnyzpYxCxi-14">
          <mxGeometry relative="1" as="geometry">
            <Array as="points">
              <mxPoint x="214" y="435" />
              <mxPoint x="214" y="355" />
            </Array>
          </mxGeometry>
        </mxCell>
        <mxCell id="qf58Oz260cfnyzpYxCxi-16" value="Output : row" style="shape=parallelogram;perimeter=parallelogramPerimeter;whiteSpace=wrap;html=1;fixedSize=1;" vertex="1" parent="1">
          <mxGeometry x="237" y="420" width="104" height="30" as="geometry" />
        </mxCell>
        <mxCell id="qf58Oz260cfnyzpYxCxi-27" value="" style="edgeStyle=orthogonalEdgeStyle;rounded=0;orthogonalLoop=1;jettySize=auto;html=1;" edge="1" parent="1" source="qf58Oz260cfnyzpYxCxi-22" target="qf58Oz260cfnyzpYxCxi-23">
          <mxGeometry relative="1" as="geometry" />
        </mxCell>
        <mxCell id="qf58Oz260cfnyzpYxCxi-22" value="simulateEarthquake (cave, N, M)" style="ellipse;whiteSpace=wrap;html=1;" vertex="1" parent="1">
          <mxGeometry x="490" y="10" width="130" height="60" as="geometry" />
        </mxCell>
        <mxCell id="qf58Oz260cfnyzpYxCxi-36" style="edgeStyle=orthogonalEdgeStyle;rounded=0;orthogonalLoop=1;jettySize=auto;html=1;exitX=0.5;exitY=1;exitDx=0;exitDy=0;entryX=0.5;entryY=0;entryDx=0;entryDy=0;" edge="1" parent="1" source="qf58Oz260cfnyzpYxCxi-23" target="qf58Oz260cfnyzpYxCxi-24">
          <mxGeometry relative="1" as="geometry" />
        </mxCell>
        <mxCell id="qf58Oz260cfnyzpYxCxi-23" value="col &amp;lt; M, ++col" style="rhombus;whiteSpace=wrap;html=1;" vertex="1" parent="1">
          <mxGeometry x="502.5" y="100" width="105" height="50" as="geometry" />
        </mxCell>
        <mxCell id="qf58Oz260cfnyzpYxCxi-37" style="edgeStyle=orthogonalEdgeStyle;rounded=0;orthogonalLoop=1;jettySize=auto;html=1;exitX=0.5;exitY=1;exitDx=0;exitDy=0;entryX=0.5;entryY=0;entryDx=0;entryDy=0;" edge="1" parent="1" source="qf58Oz260cfnyzpYxCxi-24" target="qf58Oz260cfnyzpYxCxi-25">
          <mxGeometry relative="1" as="geometry" />
        </mxCell>
        <mxCell id="qf58Oz260cfnyzpYxCxi-24" value="emptyRow = N - 1" style="rounded=0;whiteSpace=wrap;html=1;" vertex="1" parent="1">
          <mxGeometry x="495" y="180" width="120" height="40" as="geometry" />
        </mxCell>
        <mxCell id="qf58Oz260cfnyzpYxCxi-38" style="edgeStyle=orthogonalEdgeStyle;rounded=0;orthogonalLoop=1;jettySize=auto;html=1;exitX=0.5;exitY=1;exitDx=0;exitDy=0;entryX=0.5;entryY=0;entryDx=0;entryDy=0;" edge="1" parent="1" source="qf58Oz260cfnyzpYxCxi-25" target="qf58Oz260cfnyzpYxCxi-28">
          <mxGeometry relative="1" as="geometry" />
        </mxCell>
        <mxCell id="qf58Oz260cfnyzpYxCxi-45" value="YES" style="edgeLabel;html=1;align=center;verticalAlign=middle;resizable=0;points=[];" vertex="1" connectable="0" parent="qf58Oz260cfnyzpYxCxi-38">
          <mxGeometry x="-0.1576" y="1" relative="1" as="geometry">
            <mxPoint as="offset" />
          </mxGeometry>
        </mxCell>
        <mxCell id="qf58Oz260cfnyzpYxCxi-52" style="edgeStyle=orthogonalEdgeStyle;rounded=0;orthogonalLoop=1;jettySize=auto;html=1;exitX=0;exitY=0.5;exitDx=0;exitDy=0;entryX=0;entryY=0.5;entryDx=0;entryDy=0;" edge="1" parent="1" source="qf58Oz260cfnyzpYxCxi-25" target="qf58Oz260cfnyzpYxCxi-23">
          <mxGeometry relative="1" as="geometry">
            <Array as="points">
              <mxPoint x="450" y="295" />
              <mxPoint x="450" y="125" />
            </Array>
          </mxGeometry>
        </mxCell>
        <mxCell id="qf58Oz260cfnyzpYxCxi-25" value="row = N - 1,&lt;div&gt;&amp;nbsp;row &amp;gt;= 0,&lt;/div&gt;&lt;div&gt;&amp;nbsp;--row&lt;/div&gt;" style="rhombus;whiteSpace=wrap;html=1;" vertex="1" parent="1">
          <mxGeometry x="502.5" y="250" width="105" height="90" as="geometry" />
        </mxCell>
        <mxCell id="qf58Oz260cfnyzpYxCxi-39" style="edgeStyle=orthogonalEdgeStyle;rounded=0;orthogonalLoop=1;jettySize=auto;html=1;exitX=0.5;exitY=1;exitDx=0;exitDy=0;entryX=0.5;entryY=0;entryDx=0;entryDy=0;" edge="1" parent="1" source="qf58Oz260cfnyzpYxCxi-28" target="qf58Oz260cfnyzpYxCxi-29">
          <mxGeometry relative="1" as="geometry" />
        </mxCell>
        <mxCell id="qf58Oz260cfnyzpYxCxi-40" style="edgeStyle=orthogonalEdgeStyle;rounded=0;orthogonalLoop=1;jettySize=auto;html=1;exitX=1;exitY=0.5;exitDx=0;exitDy=0;entryX=0;entryY=0.5;entryDx=0;entryDy=0;" edge="1" parent="1" source="qf58Oz260cfnyzpYxCxi-28" target="qf58Oz260cfnyzpYxCxi-30">
          <mxGeometry relative="1" as="geometry" />
        </mxCell>
        <mxCell id="qf58Oz260cfnyzpYxCxi-46" value="YES" style="edgeLabel;html=1;align=center;verticalAlign=middle;resizable=0;points=[];" vertex="1" connectable="0" parent="qf58Oz260cfnyzpYxCxi-40">
          <mxGeometry x="-0.3921" y="1" relative="1" as="geometry">
            <mxPoint as="offset" />
          </mxGeometry>
        </mxCell>
        <mxCell id="qf58Oz260cfnyzpYxCxi-28" value="cave[row][col] == &#39;X&#39;" style="rhombus;whiteSpace=wrap;html=1;" vertex="1" parent="1">
          <mxGeometry x="485" y="370" width="140" height="65" as="geometry" />
        </mxCell>
        <mxCell id="qf58Oz260cfnyzpYxCxi-41" style="edgeStyle=orthogonalEdgeStyle;rounded=0;orthogonalLoop=1;jettySize=auto;html=1;exitX=1;exitY=0.5;exitDx=0;exitDy=0;entryX=0;entryY=0.5;entryDx=0;entryDy=0;" edge="1" parent="1" source="qf58Oz260cfnyzpYxCxi-29" target="qf58Oz260cfnyzpYxCxi-31">
          <mxGeometry relative="1" as="geometry" />
        </mxCell>
        <mxCell id="qf58Oz260cfnyzpYxCxi-47" value="YES" style="edgeLabel;html=1;align=center;verticalAlign=middle;resizable=0;points=[];" vertex="1" connectable="0" parent="qf58Oz260cfnyzpYxCxi-41">
          <mxGeometry x="-0.3921" y="-1" relative="1" as="geometry">
            <mxPoint as="offset" />
          </mxGeometry>
        </mxCell>
        <mxCell id="qf58Oz260cfnyzpYxCxi-29" value="cave[row][col] == &#39;S&#39;" style="rhombus;whiteSpace=wrap;html=1;" vertex="1" parent="1">
          <mxGeometry x="485" y="470" width="140" height="65" as="geometry" />
        </mxCell>
        <mxCell id="qf58Oz260cfnyzpYxCxi-48" style="edgeStyle=orthogonalEdgeStyle;rounded=0;orthogonalLoop=1;jettySize=auto;html=1;exitX=0.5;exitY=0;exitDx=0;exitDy=0;entryX=1;entryY=0.5;entryDx=0;entryDy=0;" edge="1" parent="1" source="qf58Oz260cfnyzpYxCxi-30" target="qf58Oz260cfnyzpYxCxi-25">
          <mxGeometry relative="1" as="geometry" />
        </mxCell>
        <mxCell id="qf58Oz260cfnyzpYxCxi-30" value="emptyRow = row - 1" style="rounded=0;whiteSpace=wrap;html=1;" vertex="1" parent="1">
          <mxGeometry x="690" y="382.5" width="120" height="40" as="geometry" />
        </mxCell>
        <mxCell id="qf58Oz260cfnyzpYxCxi-42" style="edgeStyle=orthogonalEdgeStyle;rounded=0;orthogonalLoop=1;jettySize=auto;html=1;exitX=1;exitY=0.5;exitDx=0;exitDy=0;entryX=0;entryY=0.5;entryDx=0;entryDy=0;" edge="1" parent="1" source="qf58Oz260cfnyzpYxCxi-31" target="qf58Oz260cfnyzpYxCxi-32">
          <mxGeometry relative="1" as="geometry" />
        </mxCell>
        <mxCell id="qf58Oz260cfnyzpYxCxi-31" value="cave[row][col] == &#39;O&#39;" style="rounded=0;whiteSpace=wrap;html=1;" vertex="1" parent="1">
          <mxGeometry x="690" y="482.5" width="120" height="40" as="geometry" />
        </mxCell>
        <mxCell id="qf58Oz260cfnyzpYxCxi-43" style="edgeStyle=orthogonalEdgeStyle;rounded=0;orthogonalLoop=1;jettySize=auto;html=1;exitX=0.5;exitY=0;exitDx=0;exitDy=0;entryX=0.5;entryY=1;entryDx=0;entryDy=0;" edge="1" parent="1" source="qf58Oz260cfnyzpYxCxi-32" target="qf58Oz260cfnyzpYxCxi-33">
          <mxGeometry relative="1" as="geometry" />
        </mxCell>
        <mxCell id="qf58Oz260cfnyzpYxCxi-44" value="Y|ES" style="edgeLabel;html=1;align=center;verticalAlign=middle;resizable=0;points=[];" vertex="1" connectable="0" parent="qf58Oz260cfnyzpYxCxi-43">
          <mxGeometry x="0.0162" y="1" relative="1" as="geometry">
            <mxPoint as="offset" />
          </mxGeometry>
        </mxCell>
        <mxCell id="qf58Oz260cfnyzpYxCxi-32" value="emptyRow &amp;gt;=0" style="rhombus;whiteSpace=wrap;html=1;" vertex="1" parent="1">
          <mxGeometry x="860" y="467.5" width="110" height="70" as="geometry" />
        </mxCell>
        <mxCell id="qf58Oz260cfnyzpYxCxi-51" style="edgeStyle=orthogonalEdgeStyle;rounded=0;orthogonalLoop=1;jettySize=auto;html=1;exitX=0.5;exitY=0;exitDx=0;exitDy=0;entryX=1;entryY=0.5;entryDx=0;entryDy=0;" edge="1" parent="1" source="qf58Oz260cfnyzpYxCxi-33" target="qf58Oz260cfnyzpYxCxi-25">
          <mxGeometry relative="1" as="geometry" />
        </mxCell>
        <mxCell id="qf58Oz260cfnyzpYxCxi-33" value="cave[row][col] == &#39;S&#39;&lt;div&gt;--emptyRow&lt;/div&gt;" style="rounded=0;whiteSpace=wrap;html=1;" vertex="1" parent="1">
          <mxGeometry x="850" y="382.5" width="130" height="40" as="geometry" />
        </mxCell>
      </root>
    </mxGraphModel>
  </diagram>
</mxfile>
